<svg  viewBox="0 0 59 25" fill="none" xmlns="http://www.w3.org/2000/svg">
<g opacity="0.6">
<mask id="mask0_5_1017" style="mask-type:luminance" maskUnits="userSpaceOnUse" x="36" y="2" width="21" height="21">
<path d="M55.5237 2.05859H37.6859C36.9635 2.05859 36.3779 2.6442 36.3779 3.36658V21.2044C36.3779 21.9268 36.9635 22.5124 37.6859 22.5124H55.5237C56.2461 22.5124 56.8317 21.9268 56.8317 21.2044V3.36658C56.8317 2.6442 56.2461 2.05859 55.5237 2.05859Z" fill="white"/>
</mask>
<g mask="url(#mask0_5_1017)">
<path d="M36.3209 17.5217C36.3209 13.9884 36.3209 10.4506 36.3209 6.91732C36.334 6.85148 36.3516 6.79003 36.3604 6.72419C36.5754 4.64809 38.138 2.76511 40.1483 2.18134C40.5257 2.07161 40.9164 2.01455 41.3026 1.93555C44.836 1.93555 48.3737 1.93555 51.907 1.93555C51.9597 1.94871 52.008 1.96627 52.0606 1.97066C54.7556 2.26035 56.8668 4.55153 56.88 7.26407C56.8976 10.556 56.8976 13.8523 56.88 17.1442C56.8624 20.085 54.4659 22.4815 51.5251 22.4947C48.2464 22.5122 44.9632 22.5079 41.6845 22.4947C39.3714 22.4859 37.3216 20.9848 36.6018 18.7814C36.4657 18.3732 36.4086 17.9387 36.3165 17.5173L36.3209 17.5217ZM53.2721 12.2283C53.2721 11.2319 53.2721 10.2356 53.2721 9.23483C53.2721 7.14117 51.6832 5.55666 49.5807 5.55227C47.5924 5.55227 45.6041 5.55227 43.6158 5.55227C41.5221 5.55227 39.9376 7.14556 39.9332 9.24361C39.9332 11.2319 39.9332 13.2203 39.9332 15.2086C39.9332 17.2935 41.5221 18.8867 43.6026 18.8911C45.6041 18.8911 47.6056 18.8911 49.607 18.8911C51.6744 18.8911 53.2633 17.2935 53.2677 15.2217C53.2677 14.2254 53.2677 13.229 53.2677 12.2283H53.2721Z" fill="#A8A9AC"/>
<path d="M52.0694 12.2195C52.0694 13.2158 52.0694 14.2122 52.0694 15.2129C52.0694 16.6306 51.016 17.6841 49.5939 17.6841C47.6012 17.6841 45.6041 17.6841 43.6114 17.6841C42.2024 17.6841 41.1446 16.6263 41.1446 15.2217C41.1446 13.2202 41.1446 11.2187 41.1446 9.21724C41.1446 7.81269 42.2024 6.75927 43.6114 6.75488C45.6129 6.75488 47.6143 6.75488 49.6158 6.75488C51.0116 6.75488 52.0694 7.81269 52.0738 9.20407C52.0738 10.2092 52.0738 11.2099 52.0738 12.2151L52.0694 12.2195ZM43.5938 12.2239C43.5938 13.883 44.9501 15.2349 46.6092 15.2349C48.2683 15.2349 49.6202 13.8786 49.6202 12.2195C49.6202 10.5603 48.264 9.20846 46.6048 9.20846C44.9457 9.20846 43.5938 10.5647 43.5938 12.2239ZM50.0591 9.36647C50.384 9.36647 50.6605 9.09873 50.6649 8.77393C50.6649 8.44912 50.4015 8.1726 50.0767 8.16383C49.7431 8.15505 49.4622 8.43596 49.4622 8.76954C49.4622 9.09434 49.7343 9.36647 50.0635 9.37086L50.0591 9.36647Z" fill="#A8A9AC"/>
<path d="M48.4132 12.2283C48.4132 13.2291 47.5924 14.0367 46.5917 14.0279C45.6041 14.0192 44.7965 13.2071 44.8009 12.2152C44.8009 11.2188 45.6216 10.4068 46.6268 10.4156C47.6187 10.4244 48.422 11.2364 48.4176 12.2283H48.4132Z" fill="#A8A9AC"/>
<path d="M58.1265 0.443359H34.7056V5.55242H58.1265V0.443359Z" fill="#A8A9AC"/>
<path d="M39.5689 23.4209V0L34.4598 0V23.4209H39.5689Z" fill="#A8A9AC"/>
<path d="M58.1265 19.4268H34.7056V24.5358H58.1265V19.4268Z" fill="#A8A9AC"/>
<path d="M59.0044 24.4436V1.02271L53.8953 1.02271V24.4436H59.0044Z" fill="#A8A9AC"/>
</g>
</g>
<g opacity="0.6">
<mask id="mask1_5_1017" style="mask-type:luminance" maskUnits="userSpaceOnUse" x="2" y="2" width="21" height="21">
<path d="M22.8635 3.81428V20.7523C22.8503 20.783 22.8328 20.8094 22.8284 20.8401C22.7274 21.3273 22.4816 21.7223 22.1041 22.0427C21.8145 22.2885 21.4633 22.407 21.1078 22.508H4.16537C4.14342 22.4948 4.12148 22.4773 4.09514 22.4729C3.06806 22.2534 2.40529 21.4458 2.40529 20.3968C2.40529 14.9849 2.40529 9.57295 2.40529 4.16103C2.40529 3.97668 2.42285 3.78794 2.46674 3.60799C2.70376 2.66869 3.52015 2.0542 4.52967 2.0542C9.92842 2.0542 15.3272 2.0542 20.7259 2.0542C20.7874 2.0542 20.8444 2.0542 20.9059 2.0542C21.4809 2.08931 21.9505 2.33072 22.3368 2.75209C22.6133 3.05494 22.7494 3.42364 22.8547 3.80989L22.8635 3.81428ZM13.6549 11.3857V10.2577H10.6044V19.4268H13.6593V19.1766C13.6593 17.5262 13.6593 15.8759 13.6593 14.2255C13.6593 14.0982 13.6637 13.971 13.6768 13.8481C13.7558 12.9527 14.7478 12.2943 15.6081 12.562C16.306 12.7815 16.7229 13.3608 16.7229 14.129C16.7229 15.8144 16.7229 17.4955 16.7229 19.181C16.7229 19.26 16.7229 19.339 16.7229 19.4224H19.7822C19.7822 19.3741 19.7866 19.339 19.7866 19.3039C19.7866 17.4121 19.7954 15.5247 19.7866 13.633C19.7779 12.3777 19.238 11.3813 18.2153 10.6746C17.2935 10.0382 16.284 9.83191 15.2043 10.2489C14.5942 10.4859 14.0894 10.8634 13.6549 11.3813V11.3857ZM5.49531 10.2489V19.4224H8.53265V10.2489H5.49531ZM8.84429 6.65411C8.84429 5.63581 8.00155 4.80624 7.00081 4.81941C5.99129 4.83258 5.17928 5.64898 5.1705 6.65411C5.16172 7.66363 5.99568 8.4932 7.00959 8.4932C8.02789 8.4932 8.84867 7.67241 8.84429 6.65411Z" fill="white"/>
</mask>
<g mask="url(#mask1_5_1017)">
<path d="M21.5555 2.05859H3.71767C2.99529 2.05859 2.40968 2.6442 2.40968 3.36658V21.2044C2.40968 21.9268 2.99529 22.5124 3.71767 22.5124H21.5555C22.2779 22.5124 22.8635 21.9268 22.8635 21.2044V3.36658C22.8635 2.6442 22.2779 2.05859 21.5555 2.05859Z" fill="#A8A9AC"/>
<path d="M25.0449 20.6338H0V24.3866H25.0449V20.6338Z" fill="#A8A9AC"/>
</g>
</g>
</svg>
