<svg  viewBox="0 0 303 39" fill="none" xmlns="http://www.w3.org/2000/svg">
<g opacity="0.5">
<g clip-path="url(#clip0_5_997)">
<path d="M151.738 38.8892C185.282 38.8892 212.475 30.2083 212.475 19.4999C212.475 8.79148 185.282 0.110596 151.738 0.110596C118.193 0.110596 91 8.79148 91 19.4999C91 30.2083 118.193 38.8892 151.738 38.8892Z" stroke="#9BF5F7" stroke-width="0.92" stroke-miterlimit="10"/>
<path d="M151.976 38.8892C185.653 38.8892 212.953 30.2083 212.953 19.4999C212.953 8.79148 185.653 0.110596 151.976 0.110596C118.3 0.110596 91 8.79148 91 19.4999C91 30.2083 118.3 38.8892 151.976 38.8892Z" stroke="#9BF5F7" stroke-width="0.92" stroke-miterlimit="10"/>
<path d="M151.976 38.8892C185.653 38.8892 212.953 30.2083 212.953 19.4999C212.953 8.79148 185.653 0.110596 151.976 0.110596C118.3 0.110596 91 8.79148 91 19.4999C91 30.2083 118.3 38.8892 151.976 38.8892Z" stroke="#9BF5F7" stroke-width="0.92" stroke-miterlimit="10"/>
<path d="M151.696 38.8892C185.77 38.8892 213.392 30.2083 213.392 19.4999C213.392 8.79148 185.77 0.110596 151.696 0.110596C117.622 0.110596 90 8.79148 90 19.4999C90 30.2083 117.622 38.8892 151.696 38.8892Z" stroke="#9BF5F7" stroke-width="0.92" stroke-miterlimit="10"/>
<path d="M151.565 38.8892C187.223 38.8892 216.13 30.2083 216.13 19.4999C216.13 8.79148 187.223 0.110596 151.565 0.110596C115.907 0.110596 87 8.79148 87 19.4999C87 30.2083 115.907 38.8892 151.565 38.8892Z" stroke="#9BF5F7" stroke-width="0.92" stroke-miterlimit="10"/>
<path d="M151.781 37.7293C190.872 37.7293 222.562 29.308 222.562 18.9199C222.562 8.53182 190.872 0.110596 151.781 0.110596C112.69 0.110596 81 8.53182 81 18.9199C81 29.308 112.69 37.7293 151.781 37.7293Z" stroke="#9BF5F7" stroke-width="0.92" stroke-miterlimit="10"/>
<path d="M151.78 36.5741C196.945 36.5741 233.559 28.4115 233.559 18.3424C233.559 8.27324 196.945 0.110596 151.78 0.110596C106.614 0.110596 70 8.27324 70 18.3424C70 28.4115 106.614 36.5741 151.78 36.5741Z" stroke="#9BF5F7" stroke-width="0.92" stroke-miterlimit="10"/>
<path d="M151.542 35.4142C202.652 35.4142 244.085 27.5112 244.085 17.7624C244.085 8.01357 202.652 0.110596 151.542 0.110596C100.433 0.110596 59 8.01357 59 17.7624C59 27.5112 100.433 35.4142 151.542 35.4142Z" stroke="#9BF5F7" stroke-width="0.92" stroke-miterlimit="10"/>
<path d="M151.866 34.2591C208.125 34.2591 253.732 26.6147 253.732 17.1848C253.732 7.75499 208.125 0.110596 151.866 0.110596C95.6071 0.110596 50 7.75499 50 17.1848C50 26.6147 95.6071 34.2591 151.866 34.2591Z" stroke="#9BF5F7" stroke-width="0.92" stroke-miterlimit="10"/>
<path d="M151.238 33.6815C212.12 33.6815 261.475 26.1664 261.475 16.896C261.475 7.6257 212.12 0.110596 151.238 0.110596C90.355 0.110596 41 7.6257 41 16.896C41 26.1664 90.355 33.6815 151.238 33.6815Z" stroke="#9BF5F7" stroke-width="0.92" stroke-miterlimit="10"/>
<path d="M151.412 33.6815C216.256 33.6815 268.823 26.1664 268.823 16.896C268.823 7.6257 216.256 0.110596 151.412 0.110596C86.567 0.110596 34 7.6257 34 16.896C34 26.1664 86.567 33.6815 151.412 33.6815Z" stroke="#9BF5F7" stroke-width="0.92" stroke-miterlimit="10"/>
<path d="M151.433 33.6815C219.052 33.6815 273.867 26.1664 273.867 16.896C273.867 7.6257 219.052 0.110596 151.433 0.110596C83.8153 0.110596 29 7.6257 29 16.896C29 26.1664 83.8153 33.6815 151.433 33.6815Z" stroke="#9BF5F7" stroke-width="0.92" stroke-miterlimit="10"/>
<path d="M151.019 33.6815C220.617 33.6815 277.038 26.1664 277.038 16.896C277.038 7.6257 220.617 0.110596 151.019 0.110596C81.4207 0.110596 25 7.6257 25 16.896C25 26.1664 81.4207 33.6815 151.019 33.6815Z" stroke="#9BF5F7" stroke-width="0.92" stroke-miterlimit="10"/>
<path d="M151.41 33.6815C222.33 33.6815 279.821 26.1664 279.821 16.896C279.821 7.6257 222.33 0.110596 151.41 0.110596C80.4913 0.110596 23 7.6257 23 16.896C23 26.1664 80.4913 33.6815 151.41 33.6815Z" stroke="#9BF5F7" stroke-width="0.92" stroke-miterlimit="10"/>
<path d="M151.366 33.6815C222.813 33.6815 280.732 26.1664 280.732 16.896C280.732 7.6257 222.813 0.110596 151.366 0.110596C79.9191 0.110596 22 7.6257 22 16.896C22 26.1664 79.9191 33.6815 151.366 33.6815Z" stroke="#9BF5F7" stroke-width="0.92" stroke-miterlimit="10"/>
<path d="M151.605 33.6815C223.183 33.6815 281.209 26.1664 281.209 16.896C281.209 7.6257 223.183 0.110596 151.605 0.110596C80.026 0.110596 22 7.6257 22 16.896C22 26.1664 80.026 33.6815 151.605 33.6815Z" stroke="#9BF5F7" stroke-width="0.92" stroke-miterlimit="10"/>
<path d="M151.085 33.6815C222.929 33.6815 281.171 26.1664 281.171 16.896C281.171 7.6257 222.929 0.110596 151.085 0.110596C79.2412 0.110596 21 7.6257 21 16.896C21 26.1664 79.2412 33.6815 151.085 33.6815Z" stroke="#9BF5F7" stroke-width="0.92" stroke-miterlimit="10"/>
<path d="M151.757 33.3903C224.525 33.3903 283.514 25.941 283.514 16.7517C283.514 7.56242 224.525 0.113037 151.757 0.113037C78.9897 0.113037 20 7.56242 20 16.7517C20 25.941 78.9897 33.3903 151.757 33.3903Z" stroke="#9BF5F7" stroke-width="0.92" stroke-miterlimit="10"/>
<path d="M151.868 32.8103C226.354 32.8103 286.736 25.4902 286.736 16.4605C286.736 7.43068 226.354 0.110596 151.868 0.110596C77.3825 0.110596 17 7.43068 17 16.4605C17 25.4902 77.3825 32.8103 151.868 32.8103Z" stroke="#9BF5F7" stroke-width="0.92" stroke-miterlimit="10"/>
<path d="M151.931 32.8103C228.661 32.8103 290.863 25.4902 290.863 16.4605C290.863 7.43068 228.661 0.110596 151.931 0.110596C75.2017 0.110596 13 7.43068 13 16.4605C13 25.4902 75.2017 32.8103 151.931 32.8103Z" stroke="#9BF5F7" stroke-width="0.92" stroke-miterlimit="10"/>
<path d="M151.52 32.8103C230.232 32.8103 294.04 25.4902 294.04 16.4605C294.04 7.43068 230.232 0.110596 151.52 0.110596C72.8084 0.110596 9 7.43068 9 16.4605C9 25.4902 72.8084 32.8103 151.52 32.8103Z" stroke="#9BF5F7" stroke-width="0.92" stroke-miterlimit="10"/>
<path d="M151.15 32.8103C231.315 32.8103 296.301 25.4902 296.301 16.4605C296.301 7.43068 231.315 0.110596 151.15 0.110596C70.986 0.110596 6 7.43068 6 16.4605C6 25.4902 70.986 32.8103 151.15 32.8103Z" stroke="#9BF5F7" stroke-width="0.92" stroke-miterlimit="10"/>
<path d="M151.542 32.8103C233.027 32.8103 299.083 25.4902 299.083 16.4605C299.083 7.43068 233.027 0.110596 151.542 0.110596C70.0566 0.110596 4 7.43068 4 16.4605C4 25.4902 70.0566 32.8103 151.542 32.8103Z" stroke="#9BF5F7" stroke-width="0.92" stroke-miterlimit="10"/>
<path d="M151.691 32.8103C234.364 32.8103 301.383 25.4902 301.383 16.4605C301.383 7.43068 234.364 0.110596 151.691 0.110596C69.0191 0.110596 2 7.43068 2 16.4605C2 25.4902 69.0191 32.8103 151.691 32.8103Z" stroke="#9BF5F7" stroke-width="0.92" stroke-miterlimit="10"/>
<path d="M151.888 32.8103C235.222 32.8103 302.777 25.4902 302.777 16.4605C302.777 7.43068 235.222 0.110596 151.888 0.110596C68.5551 0.110596 1 7.43068 1 16.4605C1 25.4902 68.5551 32.8103 151.888 32.8103Z" stroke="#9BF5F7" stroke-width="0.92" stroke-miterlimit="10"/>
<path d="M151.366 32.8103C234.963 32.8103 302.732 25.4902 302.732 16.4605C302.732 7.43068 234.963 0.110596 151.366 0.110596C67.769 0.110596 0 7.43068 0 16.4605C0 25.4902 67.769 32.8103 151.366 32.8103Z" stroke="#9BF5F7" stroke-width="0.92" stroke-miterlimit="10"/>
<path d="M151.366 32.8103C234.963 32.8103 302.732 25.4902 302.732 16.4605C302.732 7.43068 234.963 0.110596 151.366 0.110596C67.769 0.110596 0 7.43068 0 16.4605C0 25.4902 67.769 32.8103 151.366 32.8103Z" stroke="#9BF5F7" stroke-width="0.92" stroke-miterlimit="10"/>
<path d="M151.366 32.8103C234.963 32.8103 302.732 25.4902 302.732 16.4605C302.732 7.43068 234.963 0.110596 151.366 0.110596C67.769 0.110596 0 7.43068 0 16.4605C0 25.4902 67.769 32.8103 151.366 32.8103Z" stroke="#9BF5F7" stroke-width="0.92" stroke-miterlimit="10"/>
<path d="M151.366 32.8103C234.963 32.8103 302.732 25.4902 302.732 16.4605C302.732 7.43068 234.963 0.110596 151.366 0.110596C67.769 0.110596 0 7.43068 0 16.4605C0 25.4902 67.769 32.8103 151.366 32.8103Z" stroke="#9BF5F7" stroke-width="0.92" stroke-miterlimit="10"/>
<path d="M151.366 32.8103C234.963 32.8103 302.732 25.4902 302.732 16.4605C302.732 7.43068 234.963 0.110596 151.366 0.110596C67.769 0.110596 0 7.43068 0 16.4605C0 25.4902 67.769 32.8103 151.366 32.8103Z" stroke="#9BF5F7" stroke-width="0.92" stroke-miterlimit="10"/>
</g>
</g>
<defs>
<clipPath id="clip0_5_997">
<rect width="303" height="39" fill="white"/>
</clipPath>
</defs>
</svg>
